# xmcd
#
# Track frame offsets: 
#        150
#        20073
#        41051
#        72569
#        89205
#        110189
#        136138
#        167912
#        190596
#        203418
#        227295
#        260464
#        278397
#        291234
#        321052
#
# Disc length: 4525 seconds
#
# Revision: 1
# Processed by: cddbd v1.5.2PL0 Copyright (c) Steve Scherf et al.
# Submitted via: ExactAudioCopyFreeDBPlugin 1.0
#
DISCID=da11ab0f
DTITLE=Manu Dibango - Afro-Soul Machine Disc 2
DYEAR=2011
DGENRE=Afrobeat
TTITLE0=Soul Makossa (Manu Version)
TTITLE1=Ambiance Tropika
TTITLE2=Mincalor
TTITLE3=Pavane pour une Mélodie
TTITLE4=Images de Famille
TTITLE5=Soul Fiesta (Remix Version Longue)
TTITLE6=Tek Time
TTITLE7=Aloko Party
TTITLE8=Ngosso
TTITLE9=Chock 'n' Soul
TTITLE10=Kango
TTITLE11=Qui est Fou de Qui
TTITLE12=Black Beauty
TTITLE13=Reggae Makossa
TTITLE14=Un Soir au Village
EXTD=
EXTT0=
EXTT1=
EXTT2=
EXTT3=
EXTT4=
EXTT5=
EXTT6=
EXTT7=
EXTT8=
EXTT9=
EXTT10=
EXTT11=
EXTT12=
EXTT13=
EXTT14=
PLAYORDER=
